<svg id="Layer_1" data-name="Layer 1" xmlns="http://www.w3.org/2000/svg" viewBox="0 0 172.56 49.62"><defs><style>.cls-1{fill:#fff;}</style></defs><title>thaleros-white</title><path class="cls-1" d="M22.76,9H15.7V32.22H7.06V9H0V2.48H22.76Z"/><path class="cls-1" d="M47.09,18.75V32.22H38.82V20.12c0-1.82-.7-3-2.14-3-2.11,0-3.14,1-3.14,5.41v9.71H25.28V1.12A12.17,12.17,0,0,1,29.82,0a3.42,3.42,0,0,1,3.72,3.51v9.87a7.17,7.17,0,0,1,5.9-2.72C44.28,10.66,47.09,13.59,47.09,18.75Z"/><path class="cls-1" d="M70.09,18.75V31.52a12.06,12.06,0,0,1-4.54,1.11,3.4,3.4,0,0,1-3.27-2.89,6.41,6.41,0,0,1-5.74,2.89c-4.25,0-6.9-2.52-6.9-6.53,0-4.58,3.93-7.26,11-7.26h1.16c-.21-1.33-.79-2.11-2.89-2.11a10,10,0,0,0-5,1.61l-3.27-5.08a18.8,18.8,0,0,1,9.75-2.6C66.5,10.66,70.09,13.59,70.09,18.75Zm-8.26,4.59h-.95c-2.23,0-3.47.74-3.47,1.94a1.32,1.32,0,0,0,1.49,1.4C60.55,26.68,61.83,25.86,61.83,23.34Z"/><path class="cls-1" d="M73.68,25.07V1.12A12.26,12.26,0,0,1,78.22,0a3.42,3.42,0,0,1,3.72,3.51v21a1.52,1.52,0,0,0,1.7,1.66,5,5,0,0,0,1.81-.29l1,5.2A9.82,9.82,0,0,1,81,32.63C76.37,32.63,73.68,29.9,73.68,25.07Z"/><path class="cls-1" d="M104.74,25,108,30a17.25,17.25,0,0,1-9.33,2.6c-7.11,0-11.32-3.92-11.32-10.61,0-7.11,4.34-11.36,11.69-11.36,5.7,0,9,2.72,9,7.18,0,4.26-4.13,6.82-11,6.82-.46,0-.87,0-1.32,0,.49,1.24,1.56,1.9,3.59,1.9A9.65,9.65,0,0,0,104.74,25Zm-9.29-4.79c.49,0,1,0,1.44,0,2,0,3.14-.7,3.14-1.9,0-.79-.58-1.36-1.73-1.36C96.85,16.94,95.82,18.13,95.45,20.16Z"/><path class="cls-1" d="M127.58,11.4l-2.4,7.19a4.62,4.62,0,0,0-2.56-.79c-2.06,0-3.18,1.2-3.18,6.36v8.06h-8.26V11.77a12.24,12.24,0,0,1,4.55-1.11c1.85,0,3,1.36,3.34,3.26,1.53-2.6,3.39-3.26,5.12-3.26A8.83,8.83,0,0,1,127.58,11.4Z"/><path class="cls-1" d="M127.83,21.64c0-6.89,4.33-11,11.81-11s11.86,4.09,11.86,11-4.38,11-11.86,11S127.83,28.54,127.83,21.64Zm15.28,0c0-2.85-1.32-4.54-3.43-4.54s-3.43,1.69-3.43,4.54,1.33,4.51,3.43,4.51S143.11,24.45,143.11,21.64Z"/><path class="cls-1" d="M172.31,13.47l-2.85,4.33a11.83,11.83,0,0,0-5.74-1.53c-.79,0-1.69.09-1.69.67s.95.9,2.72,1.4c3.84,1.07,7.81,2.64,7.81,7.1s-3.59,7.19-9.63,7.19a15,15,0,0,1-9.62-2.89l2.11-5.08a13.9,13.9,0,0,0,7.14,2.23c1.24,0,2-.12,2-.83S163,25,161,24.45c-3.09-.82-7-2.39-7-6.56,0-4.55,3.6-7.23,9.26-7.23A15.17,15.17,0,0,1,172.31,13.47Z"/><path class="cls-1" d="M139,40.05v6a3.09,3.09,0,0,1-1.42.4,1.42,1.42,0,0,1-1.45-1,3,3,0,0,1-2.65,1c-2.6,0-4-2.29-4-5.37s1.78-5.36,4.9-5.36a4.27,4.27,0,0,1,4.06,2.35l-2.79,1.09c-.33-.67-.74-1.09-1.36-1.09-.78,0-1.68.74-1.68,3s.93,3,1.78,3,1.6-.29,1.61-1.76h-1.49V40.05Z"/><path class="cls-1" d="M146,39l-.84,2.52a1.68,1.68,0,0,0-.9-.28c-.73,0-1.12.42-1.12,2.24v2.82h-2.9V39.12a4.27,4.27,0,0,1,1.6-.39A1.2,1.2,0,0,1,143,39.87a2,2,0,0,1,1.8-1.14A3.11,3.11,0,0,1,146,39Z"/><path class="cls-1" d="M146.11,42.58c0-2.42,1.52-3.85,4.15-3.85s4.16,1.43,4.16,3.85-1.54,3.86-4.16,3.86S146.11,45,146.11,42.58Zm5.36,0c0-1-.46-1.59-1.2-1.59s-1.2.59-1.2,1.59.46,1.58,1.2,1.58S151.47,43.57,151.47,42.58Z"/><path class="cls-1" d="M162.94,39.94V46a4.29,4.29,0,0,1-1.6.4,1.2,1.2,0,0,1-1.16-1.11,2.35,2.35,0,0,1-2.07,1.11,2.53,2.53,0,0,1-2.68-2.84V39.12a4.22,4.22,0,0,1,1.59-.39,1.18,1.18,0,0,1,1.31,1.21V43.1c0,.66.25,1.06.75,1.06s1-.36,1-1.88V39.12a4.22,4.22,0,0,1,1.59-.39A1.19,1.19,0,0,1,162.94,39.94Z"/><path class="cls-1" d="M172.15,42.25a3.86,3.86,0,0,1-4.24,4.19c-.19,0-.44,0-.71,0v3.2h-2.9V39.12a4.22,4.22,0,0,1,1.59-.39A1.17,1.17,0,0,1,167,39.78a2.65,2.65,0,0,1,2.32-1.05C171,38.73,172.15,40,172.15,42.25Zm-2.94,0c0-.8-.35-1.26-1-1.26s-1,.36-1,1.9v1.43h.4C168.59,44.32,169.21,43.57,169.21,42.25Z"/></svg>